{
  "accessors": [
    {
      "bufferView": 2,
      "componentType": 5126,
      "count": 32,
      "max": [
        63.1389274597168,
        42.623199462890625,
        1.4805396795272827
      ],
      "min": [
        -61.199806213378906,
        -43.86158752441406,
        -0.3492729961872101
      ],
      "type": "VEC3"
    },
    {
      "bufferView": 2,
      "byteOffset": 384,
      "componentType": 5126,
      "count": 32,
      "max": [
        1.0,
        1.0,
        -0.0
      ],
      "min": [
        -1.0,
        -1.0,
        -0.9999966025352478
      ],
      "type": "VEC3"
    },
    {
      "bufferView": 1,
      "componentType": 5126,
      "count": 32,
      "max": [
        1.3607985973358154,
        1.6820820569992065
      ],
      "min": [
        -0.36079853773117065,
        -0.682081937789917
      ],
      "type": "VEC2"
    },
    {
      "bufferView": 0,
      "componentType": 5125,
      "count": 48,
      "type": "SCALAR"
    },
    {
      "bufferView": 2,
      "byteOffset": 768,
      "componentType": 5126,
      "count": 64,
      "max": [
        63.1389274597168,
        5.216838836669922,
        1.480523943901062
      ],
      "min": [
        -61.199806213378906,
        -5.482540130615234,
        -0.4194760024547577
      ],
      "type": "VEC3"
    },
    {
      "bufferView": 2,
      "byteOffset": 1536,
      "componentType": 5126,
      "count": 64,
      "max": [
        1.0,
        1.0,
        1.0
      ],
      "min": [
        -1.0,
        -1.0,
        -1.0
      ],
      "type": "VEC3"
    },
    {
      "bufferView": 1,
      "byteOffset": 256,
      "componentType": 5126,
      "count": 64,
      "max": [
        0.4124211370944977,
        0.9959626793861389
      ],
      "min": [
        0.3018982708454132,
        0.6953902840614319
      ],
      "type": "VEC2"
    },
    {
      "bufferView": 0,
      "byteOffset": 192,
      "componentType": 5125,
      "count": 96,
      "type": "SCALAR"
    },
    {
      "bufferView": 2,
      "byteOffset": 2304,
      "componentType": 5126,
      "count": 5174,
      "max": [
        6.227977752685547,
        6.504512786865234,
        4.781566143035889
      ],
      "min": [
        -112.77369689941406,
        -75.32752227783203,
        -4.472295761108398
      ],
      "type": "VEC3"
    },
    {
      "bufferView": 2,
      "byteOffset": 64392,
      "componentType": 5126,
      "count": 5174,
      "max": [
        1.0,
        1.0,
        1.0
      ],
      "min": [
        -1.0,
        -1.0,
        -1.0
      ],
      "type": "VEC3"
    },
    {
      "bufferView": 1,
      "byteOffset": 768,
      "componentType": 5126,
      "count": 5174,
      "max": [
        1.0002679824829102,
        1.0069940090179443
      ],
      "min": [
        0.0,
        0.0
      ],
      "type": "VEC2"
    },
    {
      "bufferView": 0,
      "byteOffset": 576,
      "componentType": 5125,
      "count": 6600,
      "type": "SCALAR"
    },
    {
      "bufferView": 2,
      "byteOffset": 126480,
      "componentType": 5126,
      "count": 33564,
      "max": [
        60.5250358581543,
        22.094289779663086,
        -0.1725616455078125
      ],
      "min": [
        -60.06942367553711,
        -42.77873611450195,
        -6.162579536437988
      ],
      "type": "VEC3"
    },
    {
      "bufferView": 2,
      "byteOffset": 529248,
      "componentType": 5126,
      "count": 33564,
      "max": [
        1.0,
        1.0,
        1.0
      ],
      "min": [
        -1.0,
        -1.0,
        -1.0
      ],
      "type": "VEC3"
    },
    {
      "bufferView": 1,
      "byteOffset": 42160,
      "componentType": 5126,
      "count": 33564,
      "max": [
        1.7679239511489868,
        0.9980020523071289
      ],
      "min": [
        -0.8085259795188904,
        1.5999999959603883e-05
      ],
      "type": "VEC2"
    },
    {
      "bufferView": 0,
      "byteOffset": 26976,
      "componentType": 5125,
      "count": 44967,
      "type": "SCALAR"
    },
    {
      "bufferView": 2,
      "byteOffset": 932016,
      "componentType": 5126,
      "count": 9290,
      "max": [
        -35.40791320800781,
        10.511199951171875,
        4.879536151885986
      ],
      "min": [
        -72.487060546875,
        -74.86810302734375,
        -1.536074161529541
      ],
      "type": "VEC3"
    },
    {
      "bufferView": 2,
      "byteOffset": 1043496,
      "componentType": 5126,
      "count": 9290,
      "max": [
        1.0,
        1.0,
        1.0
      ],
      "min": [
        -1.0,
        -1.0,
        -1.0
      ],
      "type": "VEC3"
    },
    {
      "bufferView": 1,
      "byteOffset": 310672,
      "componentType": 5126,
      "count": 9290,
      "max": [
        0.9993900060653687,
        1.0006489753723145
      ],
      "min": [
        0.12802499532699585,
        0.00019200000679120421
      ],
      "type": "VEC2"
    },
    {
      "bufferView": 0,
      "byteOffset": 206844,
      "componentType": 5125,
      "count": 13062,
      "type": "SCALAR"
    }
  ],
  "asset": {
    "extras": {
      "author": "novusod (https://sketchfab.com/novusod)",
      "license": "CC-BY-4.0 (http://creativecommons.org/licenses/by/4.0/)",
      "source": "https://sketchfab.com/3d-models/volgar-village-ea38b75764834b77b791d51d49677cf2",
      "title": "Volgar Village"
    },
    "generator": "Sketchfab-16.8.0",
    "version": "2.0"
  },
  "bufferViews": [
    {
      "buffer": 0,
      "byteLength": 259092,
      "name": "floatBufferViews",
      "target": 34963
    },
    {
      "buffer": 0,
      "byteLength": 384992,
      "byteOffset": 259092,
      "byteStride": 8,
      "name": "floatBufferViews",
      "target": 34962
    },
    {
      "buffer": 0,
      "byteLength": 1154976,
      "byteOffset": 644084,
      "byteStride": 12,
      "name": "floatBufferViews",
      "target": 34962
    }
  ],
  "buffers": [
    {
      "byteLength": 1799060,
      "uri": "scene.bin"
    }
  ],
  "images": [
    {
      "uri": "textures/Grass_baseColor.png"
    },
    {
      "uri": "textures/Mat411_baseColor.png"
    },
    {
      "uri": "textures/Material410_baseColor.png"
    }
  ],
  "materials": [
    {
      "doubleSided": true,
      "name": "Grass",
      "pbrMetallicRoughness": {
        "baseColorTexture": {
          "index": 0
        },
        "metallicFactor": 0.0
      }
    },
    {
      "doubleSided": true,
      "name": "Mat411",
      "pbrMetallicRoughness": {
        "baseColorTexture": {
          "index": 1
        },
        "metallicFactor": 0.0,
        "roughnessFactor": 0.895389
      }
    },
    {
      "doubleSided": true,
      "name": "Material410",
      "pbrMetallicRoughness": {
        "baseColorTexture": {
          "index": 2
        },
        "metallicFactor": 0.0,
        "roughnessFactor": 0.673268
      }
    }
  ],
  "meshes": [
    {
      "name": "Object_0",
      "primitives": [
        {
          "attributes": {
            "NORMAL": 1,
            "POSITION": 0,
            "TEXCOORD_0": 2
          },
          "indices": 3,
          "material": 0,
          "mode": 4
        }
      ]
    },
    {
      "name": "Object_1",
      "primitives": [
        {
          "attributes": {
            "NORMAL": 5,
            "POSITION": 4,
            "TEXCOORD_0": 6
          },
          "indices": 7,
          "material": 1,
          "mode": 4
        }
      ]
    },
    {
      "name": "Object_2",
      "primitives": [
        {
          "attributes": {
            "NORMAL": 9,
            "POSITION": 8,
            "TEXCOORD_0": 10
          },
          "indices": 11,
          "material": 2,
          "mode": 4
        }
      ]
    },
    {
      "name": "Object_3",
      "primitives": [
        {
          "attributes": {
            "NORMAL": 13,
            "POSITION": 12,
            "TEXCOORD_0": 14
          },
          "indices": 15,
          "material": 1,
          "mode": 4
        }
      ]
    },
    {
      "name": "Object_4",
      "primitives": [
        {
          "attributes": {
            "NORMAL": 17,
            "POSITION": 16,
            "TEXCOORD_0": 18
          },
          "indices": 19,
          "material": 2,
          "mode": 4
        }
      ]
    }
  ],
  "nodes": [
    {
      "children": [
        1
      ],
      "matrix": [
        1.0,
        0.0,
        0.0,
        0.0,
        0.0,
        2.220446049250313e-16,
        -1.0,
        0.0,
        0.0,
        1.0,
        2.220446049250313e-16,
        0.0,
        0.0,
        0.0,
        0.0,
        1.0
      ],
      "name": "Sketchfab_model"
    },
    {
      "children": [
        2
      ],
      "name": "root"
    },
    {
      "children": [
        3,
        6,
        8,
        10
      ],
      "matrix": [
        1.0,
        0.0,
        0.0,
        0.0,
        0.0,
        2.220446049250313e-16,
        1.0,
        0.0,
        0.0,
        -1.0,
        2.220446049250313e-16,
        0.0,
        0.0,
        0.0,
        0.0,
        1.0
      ],
      "name": "GLTF_SceneRootNode"
    },
    {
      "children": [
        4,
        5
      ],
      "matrix": [
        1.0,
        0.0,
        0.0,
        0.0,
        0.0,
        -1.685873969314855e-07,
        0.9999999999999858,
        0.0,
        0.0,
        -0.9999999999999858,
        -1.685873969314855e-07,
        0.0,
        0.0,
        0.0,
        0.0,
        1.0
      ],
      "name": "Street_0"
    },
    {
      "mesh": 0,
      "name": "Object_4"
    },
    {
      "mesh": 1,
      "name": "Object_5"
    },
    {
      "children": [
        7
      ],
      "matrix": [
        1.0,
        0.0,
        0.0,
        0.0,
        0.0,
        -1.685873969314855e-07,
        0.9999999999999858,
        0.0,
        0.0,
        -0.9999999999999858,
        -1.685873969314855e-07,
        0.0,
        53.947486877441406,
        4.546568393707275,
        32.049949645996094,
        1.0
      ],
      "name": "House1_1"
    },
    {
      "mesh": 2,
      "name": "Object_7"
    },
    {
      "children": [
        9
      ],
      "matrix": [
        1.0,
        0.0,
        0.0,
        0.0,
        0.0,
        -1.685873969314855e-07,
        0.9999999999999858,
        0.0,
        0.0,
        -0.9999999999999858,
        -1.685873969314855e-07,
        0.0,
        0.0,
        0.0,
        0.0,
        1.0
      ],
      "name": "House2_2"
    },
    {
      "mesh": 3,
      "name": "Object_9"
    },
    {
      "children": [
        11
      ],
      "matrix": [
        1.0,
        0.0,
        0.0,
        0.0,
        0.0,
        -1.685873969314855e-07,
        0.9999999999999858,
        0.0,
        0.0,
        -0.9999999999999858,
        -1.685873969314855e-07,
        0.0,
        53.947486877441406,
        4.546568393707275,
        32.049949645996094,
        1.0
      ],
      "name": "House3_3"
    },
    {
      "mesh": 4,
      "name": "Object_11"
    }
  ],
  "samplers": [
    {
      "magFilter": 9729,
      "minFilter": 9987,
      "wrapS": 10497,
      "wrapT": 10497
    }
  ],
  "scene": 0,
  "scenes": [
    {
      "name": "Sketchfab_Scene",
      "nodes": [
        0
      ]
    }
  ],
  "textures": [
    {
      "sampler": 0,
      "source": 0
    },
    {
      "sampler": 0,
      "source": 1
    },
    {
      "sampler": 0,
      "source": 2
    }
  ]
}
